<svg id="visual" viewBox="0 0 675 900" width="675" height="900" xmlns="http://www.w3.org/2000/svg" xmlns:xlink="http://www.w3.org/1999/xlink" version="1.1"><g stroke-width="1" stroke-linejoin="bevel"><path d="M352.5 470L356.5 564.5L430 574.5Z" fill="#f3f3b3" stroke="#f3f3b3"></path><path d="M430 574.5L457 457L352.5 470Z" fill="#f3f3b3" stroke="#f3f3b3"></path><path d="M430 574.5L544.5 571.5L457 457Z" fill="#efefa5" stroke="#efefa5"></path><path d="M544.5 571.5L559.5 469L457 457Z" fill="#efefa5" stroke="#efefa5"></path><path d="M243 584.5L354.5 676L356.5 564.5Z" fill="#f1f1ac" stroke="#f1f1ac"></path><path d="M356.5 564.5L354.5 676L430 574.5Z" fill="#f3f3b3" stroke="#f3f3b3"></path><path d="M430 574.5L453 679L544.5 571.5Z" fill="#f2f2ae" stroke="#f2f2ae"></path><path d="M354.5 676L453 679L430 574.5Z" fill="#f2f2ae" stroke="#f2f2ae"></path><path d="M352.5 470L243 584.5L356.5 564.5Z" fill="#f0f0aa" stroke="#f0f0aa"></path><path d="M339.5 331.5L241 450L352.5 470Z" fill="#f4f4b6" stroke="#f4f4b6"></path><path d="M352.5 470L241 450L243 584.5Z" fill="#f2f2ae" stroke="#f2f2ae"></path><path d="M559.5 469L464 344.5L457 457Z" fill="#f3f3b1" stroke="#f3f3b1"></path><path d="M457 457L464 344.5L352.5 470Z" fill="#efefa5" stroke="#efefa5"></path><path d="M464 344.5L339.5 331.5L352.5 470Z" fill="#efefa5" stroke="#efefa5"></path><path d="M126.5 579.5L244 660L243 584.5Z" fill="#f5f5b8" stroke="#f5f5b8"></path><path d="M243 584.5L244 660L354.5 676Z" fill="#f4f4b6" stroke="#f4f4b6"></path><path d="M453 679L560.5 679L544.5 571.5Z" fill="#efefa5" stroke="#efefa5"></path><path d="M544.5 571.5L675 557.5L559.5 469Z" fill="#f1f1ac" stroke="#f1f1ac"></path><path d="M339.5 331.5L232 343.5L241 450Z" fill="#f2f2ae" stroke="#f2f2ae"></path><path d="M241 450L126.5 579.5L243 584.5Z" fill="#f3f3b1" stroke="#f3f3b1"></path><path d="M559.5 469L575.5 337.5L464 344.5Z" fill="#f4f4b6" stroke="#f4f4b6"></path><path d="M459 219L334.5 243L339.5 331.5Z" fill="#ededa0" stroke="#ededa0"></path><path d="M675 436L575.5 337.5L559.5 469Z" fill="#f4f4b6" stroke="#f4f4b6"></path><path d="M244 660L315.5 771.5L354.5 676Z" fill="#f3f3b1" stroke="#f3f3b1"></path><path d="M354.5 676L428 797.5L453 679Z" fill="#ededa0" stroke="#ededa0"></path><path d="M453 679L558.5 803.5L560.5 679Z" fill="#ededa0" stroke="#ededa0"></path><path d="M560.5 679L675 557.5L544.5 571.5Z" fill="#f1f1ac" stroke="#f1f1ac"></path><path d="M459 219L339.5 331.5L464 344.5Z" fill="#f4f4b6" stroke="#f4f4b6"></path><path d="M339.5 331.5L334.5 243L232 343.5Z" fill="#f2f2ae" stroke="#f2f2ae"></path><path d="M108.5 443L126.5 579.5L241 450Z" fill="#f4f4b6" stroke="#f4f4b6"></path><path d="M244 660L226 775.5L315.5 771.5Z" fill="#efefa7" stroke="#efefa7"></path><path d="M315.5 771.5L428 797.5L354.5 676Z" fill="#f2f2ae" stroke="#f2f2ae"></path><path d="M675 557.5L675 436L559.5 469Z" fill="#f3f3b1" stroke="#f3f3b1"></path><path d="M103.5 319.5L108.5 443L232 343.5Z" fill="#efefa7" stroke="#efefa7"></path><path d="M232 343.5L108.5 443L241 450Z" fill="#f1f1ac" stroke="#f1f1ac"></path><path d="M568.5 246L464 344.5L575.5 337.5Z" fill="#eeeea2" stroke="#eeeea2"></path><path d="M568.5 246L459 219L464 344.5Z" fill="#eeeea2" stroke="#eeeea2"></path><path d="M89.5 679L226 775.5L244 660Z" fill="#ededa0" stroke="#ededa0"></path><path d="M341.5 900L427 900L428 797.5Z" fill="#ededa0" stroke="#ededa0"></path><path d="M675 345.5L568.5 246L575.5 337.5Z" fill="#eeeea2" stroke="#eeeea2"></path><path d="M675 436L675 345.5L575.5 337.5Z" fill="#f2f2ae" stroke="#f2f2ae"></path><path d="M560.5 679L675 690L675 557.5Z" fill="#efefa7" stroke="#efefa7"></path><path d="M675 774.5L675 690L560.5 679Z" fill="#f3f3b1" stroke="#f3f3b1"></path><path d="M428 797.5L558.5 803.5L453 679Z" fill="#f3f3b3" stroke="#f3f3b3"></path><path d="M324.5 122.5L215 243L334.5 243Z" fill="#f4f4b6" stroke="#f4f4b6"></path><path d="M334.5 243L215 243L232 343.5Z" fill="#f5f5b8" stroke="#f5f5b8"></path><path d="M0 657L89.5 679L126.5 579.5Z" fill="#f2f2ae" stroke="#f2f2ae"></path><path d="M126.5 579.5L89.5 679L244 660Z" fill="#f0f0aa" stroke="#f0f0aa"></path><path d="M215 243L103.5 319.5L232 343.5Z" fill="#eeeea2" stroke="#eeeea2"></path><path d="M108.5 443L0 549.5L126.5 579.5Z" fill="#f5f5b8" stroke="#f5f5b8"></path><path d="M558.5 803.5L675 774.5L560.5 679Z" fill="#f0f0aa" stroke="#f0f0aa"></path><path d="M428 797.5L548.5 900L558.5 803.5Z" fill="#f3f3b1" stroke="#f3f3b1"></path><path d="M558.5 803.5L675 900L675 774.5Z" fill="#f3f3b3" stroke="#f3f3b3"></path><path d="M341.5 900L428 797.5L315.5 771.5Z" fill="#f3f3b3" stroke="#f3f3b3"></path><path d="M220 900L315.5 771.5L226 775.5Z" fill="#ededa0" stroke="#ededa0"></path><path d="M220 900L341.5 900L315.5 771.5Z" fill="#f4f4b6" stroke="#f4f4b6"></path><path d="M89.5 679L102.5 770.5L226 775.5Z" fill="#f5f5b8" stroke="#f5f5b8"></path><path d="M562.5 129.5L434 115.5L459 219Z" fill="#efefa5" stroke="#efefa5"></path><path d="M675 345.5L675 228L568.5 246Z" fill="#f1f1ac" stroke="#f1f1ac"></path><path d="M204 98.5L123.5 228L215 243Z" fill="#efefa7" stroke="#efefa7"></path><path d="M215 243L123.5 228L103.5 319.5Z" fill="#f3f3b1" stroke="#f3f3b1"></path><path d="M434 115.5L324.5 122.5L334.5 243Z" fill="#f3f3b3" stroke="#f3f3b3"></path><path d="M434 115.5L334.5 243L459 219Z" fill="#f1f1ac" stroke="#f1f1ac"></path><path d="M562.5 129.5L459 219L568.5 246Z" fill="#f3f3b1" stroke="#f3f3b1"></path><path d="M0 455L0 549.5L108.5 443Z" fill="#ededa0" stroke="#ededa0"></path><path d="M89.5 679L0 785.5L102.5 770.5Z" fill="#f3f3b1" stroke="#f3f3b1"></path><path d="M0 455L108.5 443L0 343.5Z" fill="#ededa0" stroke="#ededa0"></path><path d="M0 343.5L108.5 443L103.5 319.5Z" fill="#f2f2ae" stroke="#f2f2ae"></path><path d="M427 900L548.5 900L428 797.5Z" fill="#ededa0" stroke="#ededa0"></path><path d="M675 228L562.5 129.5L568.5 246Z" fill="#f0f0aa" stroke="#f0f0aa"></path><path d="M0 549.5L0 657L126.5 579.5Z" fill="#f5f5b8" stroke="#f5f5b8"></path><path d="M102.5 770.5L220 900L226 775.5Z" fill="#f4f4b6" stroke="#f4f4b6"></path><path d="M0 246L0 343.5L103.5 319.5Z" fill="#f5f5b8" stroke="#f5f5b8"></path><path d="M324.5 122.5L204 98.5L215 243Z" fill="#f5f5b8" stroke="#f5f5b8"></path><path d="M123.5 228L0 246L103.5 319.5Z" fill="#f0f0aa" stroke="#f0f0aa"></path><path d="M319.5 0L204 98.5L324.5 122.5Z" fill="#f3f3b3" stroke="#f3f3b3"></path><path d="M542.5 0L449 0L434 115.5Z" fill="#f1f1ac" stroke="#f1f1ac"></path><path d="M434 115.5L319.5 0L324.5 122.5Z" fill="#f2f2ae" stroke="#f2f2ae"></path><path d="M675 228L675 131.5L562.5 129.5Z" fill="#efefa7" stroke="#efefa7"></path><path d="M548.5 900L675 900L558.5 803.5Z" fill="#f1f1ac" stroke="#f1f1ac"></path><path d="M110.5 116.5L0 246L123.5 228Z" fill="#f3f3b3" stroke="#f3f3b3"></path><path d="M0 657L0 785.5L89.5 679Z" fill="#f0f0aa" stroke="#f0f0aa"></path><path d="M102.5 770.5L89.5 900L220 900Z" fill="#f3f3b3" stroke="#f3f3b3"></path><path d="M204 98.5L110.5 116.5L123.5 228Z" fill="#ededa0" stroke="#ededa0"></path><path d="M0 785.5L89.5 900L102.5 770.5Z" fill="#ededa0" stroke="#ededa0"></path><path d="M542.5 0L434 115.5L562.5 129.5Z" fill="#f1f1ac" stroke="#f1f1ac"></path><path d="M204 98.5L126.5 0L110.5 116.5Z" fill="#f0f0aa" stroke="#f0f0aa"></path><path d="M449 0L319.5 0L434 115.5Z" fill="#efefa7" stroke="#efefa7"></path><path d="M675 0L542.5 0L562.5 129.5Z" fill="#f3f3b1" stroke="#f3f3b1"></path><path d="M319.5 0L221 0L204 98.5Z" fill="#f5f5b8" stroke="#f5f5b8"></path><path d="M0 785.5L0 900L89.5 900Z" fill="#f4f4b6" stroke="#f4f4b6"></path><path d="M0 0L0 104.5L110.5 116.5Z" fill="#f1f1ac" stroke="#f1f1ac"></path><path d="M110.5 116.5L0 104.5L0 246Z" fill="#f4f4b6" stroke="#f4f4b6"></path><path d="M221 0L126.5 0L204 98.5Z" fill="#f5f5b8" stroke="#f5f5b8"></path><path d="M675 131.5L675 0L562.5 129.5Z" fill="#f3f3b3" stroke="#f3f3b3"></path><path d="M126.5 0L0 0L110.5 116.5Z" fill="#f2f2ae" stroke="#f2f2ae"></path></g></svg>