<svg id="visual" viewBox="0 0 960 540" width="960" height="540" xmlns="http://www.w3.org/2000/svg" xmlns:xlink="http://www.w3.org/1999/xlink" version="1.1"><path d="M0 98L16 85.5C32 73 64 48 96 33.7C128 19.3 160 15.7 192 25.5C224 35.3 256 58.7 288 59.5C320 60.3 352 38.7 384 41.3C416 44 448 71 480 76.5C512 82 544 66 576 58C608 50 640 50 672 54.5C704 59 736 68 768 76C800 84 832 91 864 80.2C896 69.3 928 40.7 944 26.3L960 12L960 0L944 0C928 0 896 0 864 0C832 0 800 0 768 0C736 0 704 0 672 0C640 0 608 0 576 0C544 0 512 0 480 0C448 0 416 0 384 0C352 0 320 0 288 0C256 0 224 0 192 0C160 0 128 0 96 0C64 0 32 0 16 0L0 0Z" fill="#001513"></path><path d="M0 136L16 123.3C32 110.7 64 85.3 96 71C128 56.7 160 53.3 192 57.8C224 62.3 256 74.7 288 74.7C320 74.7 352 62.3 384 75.8C416 89.3 448 128.7 480 141.2C512 153.7 544 139.3 576 121.3C608 103.3 640 81.7 672 78.2C704 74.7 736 89.3 768 104.7C800 120 832 136 864 124.2C896 112.3 928 72.7 944 52.8L960 33L960 10L944 24.3C928 38.7 896 67.3 864 78.2C832 89 800 82 768 74C736 66 704 57 672 52.5C640 48 608 48 576 56C544 64 512 80 480 74.5C448 69 416 42 384 39.3C352 36.7 320 58.3 288 57.5C256 56.7 224 33.3 192 23.5C160 13.7 128 17.3 96 31.7C64 46 32 71 16 83.5L0 96Z" fill="#042a24"></path><path d="M0 282L16 267.5C32 253 64 224 96 205C128 186 160 177 192 169.8C224 162.7 256 157.3 288 169.2C320 181 352 210 384 218.2C416 226.3 448 213.7 480 201C512 188.3 544 175.7 576 178.3C608 181 640 199 672 194.5C704 190 736 163 768 165.7C800 168.3 832 200.7 864 203.3C896 206 928 179 944 165.5L960 152L960 31L944 50.8C928 70.7 896 110.3 864 122.2C832 134 800 118 768 102.7C736 87.3 704 72.7 672 76.2C640 79.7 608 101.3 576 119.3C544 137.3 512 151.7 480 139.2C448 126.7 416 87.3 384 73.8C352 60.3 320 72.7 288 72.7C256 72.7 224 60.3 192 55.8C160 51.3 128 54.7 96 69C64 83.3 32 108.7 16 121.3L0 134Z" fill="#004032"></path><path d="M0 352L16 345.7C32 339.3 64 326.7 96 306C128 285.3 160 256.7 192 249.5C224 242.3 256 256.7 288 264.7C320 272.7 352 274.3 384 281.5C416 288.7 448 301.3 480 300.5C512 299.7 544 285.3 576 290.8C608 296.3 640 321.7 672 316.3C704 311 736 275 768 267.7C800 260.3 832 281.7 864 269.8C896 258 928 213 944 190.5L960 168L960 150L944 163.5C928 177 896 204 864 201.3C832 198.7 800 166.3 768 163.7C736 161 704 188 672 192.5C640 197 608 179 576 176.3C544 173.7 512 186.3 480 199C448 211.7 416 224.3 384 216.2C352 208 320 179 288 167.2C256 155.3 224 160.7 192 167.8C160 175 128 184 96 203C64 222 32 251 16 265.5L0 280Z" fill="#02533c"></path><path d="M0 390L16 387.3C32 384.7 64 379.3 96 364.8C128 350.3 160 326.7 192 316.7C224 306.7 256 310.3 288 317.7C320 325 352 336 384 343.2C416 350.3 448 353.7 480 349.2C512 344.7 544 332.3 576 341.3C608 350.3 640 380.7 672 372.5C704 364.3 736 317.7 768 303.3C800 289 832 307 864 305.2C896 303.3 928 281.7 944 270.8L960 260L960 166L944 188.5C928 211 896 256 864 267.8C832 279.7 800 258.3 768 265.7C736 273 704 309 672 314.3C640 319.7 608 294.3 576 288.8C544 283.3 512 297.7 480 298.5C448 299.3 416 286.7 384 279.5C352 272.3 320 270.7 288 262.7C256 254.7 224 240.3 192 247.5C160 254.7 128 283.3 96 304C64 324.7 32 337.3 16 343.7L0 350Z" fill="#02533c"></path><path d="M0 460L16 455.5C32 451 64 442 96 443.8C128 445.7 160 458.3 192 462.8C224 467.3 256 463.7 288 463.7C320 463.7 352 467.3 384 477.2C416 487 448 503 480 500.3C512 497.7 544 476.3 576 471.8C608 467.3 640 479.7 672 484.2C704 488.7 736 485.3 768 489.8C800 494.3 832 506.7 864 505.7C896 504.7 928 490.3 944 483.2L960 476L960 258L944 268.8C928 279.7 896 301.3 864 303.2C832 305 800 287 768 301.3C736 315.7 704 362.3 672 370.5C640 378.7 608 348.3 576 339.3C544 330.3 512 342.7 480 347.2C448 351.7 416 348.3 384 341.2C352 334 320 323 288 315.7C256 308.3 224 304.7 192 314.7C160 324.7 128 348.3 96 362.8C64 377.3 32 382.7 16 385.3L0 388Z" fill="#004032"></path><path d="M0 509L16 503.5C32 498 64 487 96 483.3C128 479.7 160 483.3 192 484.3C224 485.3 256 483.7 288 487.3C320 491 352 500 384 508C416 516 448 523 480 523.8C512 524.7 544 519.3 576 518.5C608 517.7 640 521.3 672 520.5C704 519.7 736 514.3 768 516.2C800 518 832 527 864 527C896 527 928 518 944 513.5L960 509L960 474L944 481.2C928 488.3 896 502.7 864 503.7C832 504.7 800 492.3 768 487.8C736 483.3 704 486.7 672 482.2C640 477.7 608 465.3 576 469.8C544 474.3 512 495.7 480 498.3C448 501 416 485 384 475.2C352 465.3 320 461.7 288 461.7C256 461.7 224 465.3 192 460.8C160 456.3 128 443.7 96 441.8C64 440 32 449 16 453.5L0 458Z" fill="#042a24"></path><path d="M0 541L16 541C32 541 64 541 96 541C128 541 160 541 192 541C224 541 256 541 288 541C320 541 352 541 384 541C416 541 448 541 480 541C512 541 544 541 576 541C608 541 640 541 672 541C704 541 736 541 768 541C800 541 832 541 864 541C896 541 928 541 944 541L960 541L960 507L944 511.5C928 516 896 525 864 525C832 525 800 516 768 514.2C736 512.3 704 517.7 672 518.5C640 519.3 608 515.7 576 516.5C544 517.3 512 522.7 480 521.8C448 521 416 514 384 506C352 498 320 489 288 485.3C256 481.7 224 483.3 192 482.3C160 481.3 128 477.7 96 481.3C64 485 32 496 16 501.5L0 507Z" fill="#001513"></path></svg>