<svg id="visual" viewBox="0 0 675 900" width="675" height="900" xmlns="http://www.w3.org/2000/svg" xmlns:xlink="http://www.w3.org/1999/xlink" version="1.1"><path d="M0 46L12.5 44.5C25 43 50 40 75 41.5C100 43 125 49 150 47.5C175 46 200 37 225 32.5C250 28 275 28 300 28C325 28 350 28 375 32.5C400 37 425 46 450 49C475 52 500 49 525 47.5C550 46 575 46 600 43C625 40 650 34 662.5 31L675 28L675 0L662.5 0C650 0 625 0 600 0C575 0 550 0 525 0C500 0 475 0 450 0C425 0 400 0 375 0C350 0 325 0 300 0C275 0 250 0 225 0C200 0 175 0 150 0C125 0 100 0 75 0C50 0 25 0 12.5 0L0 0Z" fill="#063f31"></path><path d="M0 127L12.5 124C25 121 50 115 75 118C100 121 125 133 150 139C175 145 200 145 225 151C250 157 275 169 300 173.5C325 178 350 175 375 170.5C400 166 425 160 450 161.5C475 163 500 172 525 169C550 166 575 151 600 143.5C625 136 650 136 662.5 136L675 136L675 26L662.5 29C650 32 625 38 600 41C575 44 550 44 525 45.5C500 47 475 50 450 47C425 44 400 35 375 30.5C350 26 325 26 300 26C275 26 250 26 225 30.5C200 35 175 44 150 45.5C125 47 100 41 75 39.5C50 38 25 41 12.5 42.5L0 44Z" fill="#044939"></path><path d="M0 145L12.5 143.5C25 142 50 139 75 143.5C100 148 125 160 150 164.5C175 169 200 166 225 172C250 178 275 193 300 200.5C325 208 350 208 375 205C400 202 425 196 450 196C475 196 500 202 525 200.5C550 199 575 190 600 184C625 178 650 175 662.5 173.5L675 172L675 134L662.5 134C650 134 625 134 600 141.5C575 149 550 164 525 167C500 170 475 161 450 159.5C425 158 400 164 375 168.5C350 173 325 176 300 171.5C275 167 250 155 225 149C200 143 175 143 150 137C125 131 100 119 75 116C50 113 25 119 12.5 122L0 125Z" fill="#025440"></path><path d="M0 280L12.5 292C25 304 50 328 75 350.5C100 373 125 394 150 380.5C175 367 200 319 225 317.5C250 316 275 361 300 371.5C325 382 350 358 375 358C400 358 425 382 450 385C475 388 500 370 525 353.5C550 337 575 322 600 323.5C625 325 650 343 662.5 352L675 361L675 170L662.5 171.5C650 173 625 176 600 182C575 188 550 197 525 198.5C500 200 475 194 450 194C425 194 400 200 375 203C350 206 325 206 300 198.5C275 191 250 176 225 170C200 164 175 167 150 162.5C125 158 100 146 75 141.5C50 137 25 140 12.5 141.5L0 143Z" fill="#076851"></path><path d="M0 334L12.5 343C25 352 50 370 75 394C100 418 125 448 150 437.5C175 427 200 376 225 371.5C250 367 275 409 300 418C325 427 350 403 375 401.5C400 400 425 421 450 425.5C475 430 500 418 525 401.5C550 385 575 364 600 362.5C625 361 650 379 662.5 388L675 397L675 359L662.5 350C650 341 625 323 600 321.5C575 320 550 335 525 351.5C500 368 475 386 450 383C425 380 400 356 375 356C350 356 325 380 300 369.5C275 359 250 314 225 315.5C200 317 175 365 150 378.5C125 392 100 371 75 348.5C50 326 25 302 12.5 290L0 278Z" fill="#128066"></path><path d="M0 379L12.5 385C25 391 50 403 75 424C100 445 125 475 150 467.5C175 460 200 415 225 415C250 415 275 460 300 470.5C325 481 350 457 375 454C400 451 425 469 450 473.5C475 478 500 469 525 451C550 433 575 406 600 401.5C625 397 650 415 662.5 424L675 433L675 395L662.5 386C650 377 625 359 600 360.5C575 362 550 383 525 399.5C500 416 475 428 450 423.5C425 419 400 398 375 399.5C350 401 325 425 300 416C275 407 250 365 225 369.5C200 374 175 425 150 435.5C125 446 100 416 75 392C50 368 25 350 12.5 341L0 332Z" fill="#168a6e"></path><path d="M0 469L12.5 476.5C25 484 50 499 75 512.5C100 526 125 538 150 521.5C175 505 200 460 225 458.5C250 457 275 499 300 517C325 535 350 529 375 535C400 541 425 559 450 562C475 565 500 553 525 532C550 511 575 481 600 473.5C625 466 650 481 662.5 488.5L675 496L675 431L662.5 422C650 413 625 395 600 399.5C575 404 550 431 525 449C500 467 475 476 450 471.5C425 467 400 449 375 452C350 455 325 479 300 468.5C275 458 250 413 225 413C200 413 175 458 150 465.5C125 473 100 443 75 422C50 401 25 389 12.5 383L0 377Z" fill="#168a6e"></path><path d="M0 487L12.5 496C25 505 50 523 75 539.5C100 556 125 571 150 557.5C175 544 200 502 225 500.5C250 499 275 538 300 554.5C325 571 350 565 375 568C400 571 425 583 450 587.5C475 592 500 589 525 571C550 553 575 520 600 508C625 496 650 505 662.5 509.5L675 514L675 494L662.5 486.5C650 479 625 464 600 471.5C575 479 550 509 525 530C500 551 475 563 450 560C425 557 400 539 375 533C350 527 325 533 300 515C275 497 250 455 225 456.5C200 458 175 503 150 519.5C125 536 100 524 75 510.5C50 497 25 482 12.5 474.5L0 467Z" fill="#128066"></path><path d="M0 568L12.5 571C25 574 50 580 75 589C100 598 125 610 150 601C175 592 200 562 225 568C250 574 275 616 300 626.5C325 637 350 616 375 617.5C400 619 425 643 450 652C475 661 500 655 525 632.5C550 610 575 571 600 562C625 553 650 574 662.5 584.5L675 595L675 512L662.5 507.5C650 503 625 494 600 506C575 518 550 551 525 569C500 587 475 590 450 585.5C425 581 400 569 375 566C350 563 325 569 300 552.5C275 536 250 497 225 498.5C200 500 175 542 150 555.5C125 569 100 554 75 537.5C50 521 25 503 12.5 494L0 485Z" fill="#076851"></path><path d="M0 775L12.5 769C25 763 50 751 75 746.5C100 742 125 745 150 752.5C175 760 200 772 225 776.5C250 781 275 778 300 775C325 772 350 769 375 770.5C400 772 425 778 450 784C475 790 500 796 525 791.5C550 787 575 772 600 758.5C625 745 650 733 662.5 727L675 721L675 593L662.5 582.5C650 572 625 551 600 560C575 569 550 608 525 630.5C500 653 475 659 450 650C425 641 400 617 375 615.5C350 614 325 635 300 624.5C275 614 250 572 225 566C200 560 175 590 150 599C125 608 100 596 75 587C50 578 25 572 12.5 569L0 566Z" fill="#025440"></path><path d="M0 847L12.5 847C25 847 50 847 75 847C100 847 125 847 150 844C175 841 200 835 225 836.5C250 838 275 847 300 850C325 853 350 850 375 845.5C400 841 425 835 450 838C475 841 500 853 525 857.5C550 862 575 859 600 854.5C625 850 650 844 662.5 841L675 838L675 719L662.5 725C650 731 625 743 600 756.5C575 770 550 785 525 789.5C500 794 475 788 450 782C425 776 400 770 375 768.5C350 767 325 770 300 773C275 776 250 779 225 774.5C200 770 175 758 150 750.5C125 743 100 740 75 744.5C50 749 25 761 12.5 767L0 773Z" fill="#044939"></path><path d="M0 901L12.5 901C25 901 50 901 75 901C100 901 125 901 150 901C175 901 200 901 225 901C250 901 275 901 300 901C325 901 350 901 375 901C400 901 425 901 450 901C475 901 500 901 525 901C550 901 575 901 600 901C625 901 650 901 662.5 901L675 901L675 836L662.5 839C650 842 625 848 600 852.5C575 857 550 860 525 855.5C500 851 475 839 450 836C425 833 400 839 375 843.5C350 848 325 851 300 848C275 845 250 836 225 834.5C200 833 175 839 150 842C125 845 100 845 75 845C50 845 25 845 12.5 845L0 845Z" fill="#063f31"></path></svg>